<?xml version="1.0" encoding="utf-8"?>
<!-- Generator: Adobe Illustrator 27.0.1, SVG Export Plug-In . SVG Version: 6.00 Build 0)  -->
<svg version="1.1" xmlns="http://www.w3.org/2000/svg" xmlns:xlink="http://www.w3.org/1999/xlink" x="0px" y="0px"
	 viewBox="0 0 23.2 26.1" style="enable-background:new 0 0 23.2 26.1;" xml:space="preserve">
<style type="text/css">
	.st0{display:none;}
	.st1{display:inline;}
	.st2{fill-rule:evenodd;clip-rule:evenodd;}
	.st3{display:none;fill-rule:evenodd;clip-rule:evenodd;}
</style>
<g id="Layer_1" class="st0">
	<path class="st1" d="M10.7,2.3C10.7,2.3,10.7,2.3,10.7,2.3l0-0.3L9.3,2c-1.3,0-1.7,0-1.8,0c0,0-0.5,1.8-1.3,4.9
		C5.8,8.5,5.5,9.7,5.5,9.7S5,7.9,4.4,5.9c-0.6-2.1-1-3.8-1-3.8c0,0-1.8,0-3.3,0c-0.2,0-0.3-0.4,1.9,6.6c0.3,1,0.8,2.3,1,3.1
		c0.3,0.8,0.5,1.4,0.6,2c0.3,1,0.3,1.6,0.2,2.4c-0.1,0.8-0.1,6.8,0,6.9c0,0.1,2.9,0.1,3.1,0C7,23,7,23,7,22.7c0.1-0.2,0.1-1,0.1-4.2
		v-4.1l0.2-0.6c0.1-0.4,0.4-1.3,0.7-2.2c0.2-0.8,0.5-1.8,0.7-2.2c1.1-3.4,2.1-6.8,2.1-7L10.7,2.3L10.7,2.3z"/>
	<path class="st1" d="M26.4,7.3l0,0.2h0l0,5.9l0,5.7l-0.5,0.5c-0.5,0.5-0.9,0.7-1.3,0.6c-0.4-0.1-0.4,0.1-0.4-6.7l0-6.2h-2.9v0.2h0
		v6.8c0,7.2,0,7.2,0.4,8c0.3,0.6,0.7,0.9,1.5,1l0,0c1,0.1,2-0.3,3-1.2l0.4-0.4v0.7c0,0.6,0,0.7,0.1,0.7c0.2,0,2.4,0.1,2.7,0l0.2,0
		v-0.2l0,0V7.3L26.4,7.3L26.4,7.3z"/>
	<path class="st1" d="M18.9,10.4c-0.3-1.2-0.8-2-1.7-2.6c-1.4-0.9-2.9-1-4.3-0.3c-1,0.5-1.7,1.4-2.1,2.6c0,0.1-0.1,0.3-0.1,0.5
		c-0.1,0.4-0.1,1.1-0.1,4.2c0,4.7,0,5.3,0.6,6.4c0.6,1.1,1.8,1.8,3.1,2c0.4,0,1.2,0,1.7-0.2c1.1-0.3,2.1-1.1,2.5-2.1
		c0.2-0.4,0.3-0.7,0.4-1.2c0.1-0.7,0.1-1.8,0.1-4.8C19.1,11.3,19.1,10.9,18.9,10.4L18.9,10.4z M15.6,20c-0.2,0.2-0.7,0.3-1,0.2
		c-0.3-0.1-0.6-0.5-0.7-0.9c-0.1-0.5-0.2-7.2,0-8.5c0.2-0.7,0.8-1,1.4-0.8c0.5,0.1,0.7,0.4,0.9,1c0.1,0.5,0.1,1,0.1,4.4
		c0,2.2,0,3.3-0.1,3.9C15.9,19.8,15.8,19.9,15.6,20L15.6,20z"/>
	<path class="st1" d="M71.9,13.7h1.4l0-1.3c0-1.2,0-1.3-0.2-1.6c-0.2-0.5-0.6-0.7-1.2-0.7c-0.7,0-1.1,0.3-1.4,1
		c-0.1,0.3-0.2,2.3-0.1,2.5C70.4,13.7,70.6,13.7,71.9,13.7L71.9,13.7z"/>
	<path class="st1" d="M62.3,10.8c-0.2-0.4-0.5-0.6-1-0.6c-0.3,0-0.7,0.1-1,0.4l-0.3,0.2v9.3l0.3,0.2c0.6,0.4,1.2,0.5,1.6,0.2
		c0.2-0.1,0.3-0.3,0.4-0.5c0.1-0.3,0.1-0.8,0.1-4.6C62.5,11.3,62.5,11.1,62.3,10.8L62.3,10.8z"/>
	<path class="st1" d="M80,6.6c-0.3-3.4-0.5-4.5-1.2-5.9c-0.9-1.9-2.3-2.9-4.2-3.1c-1.5-0.2-7-0.4-12.2-0.5C53.5-3.1,38.8-2.7,37-2.2
		C36.1-2,35.5-1.6,34.8-1c-1.2,1.2-1.9,2.9-2.2,5.2C32,9.6,32,16,32.6,21.5c0.3,2.4,0.8,3.9,1.9,5.2c0.6,0.8,1.8,1.5,2.8,1.7
		c0.7,0.1,4.2,0.3,9.3,0.5c0.8,0,2.8,0.1,4.5,0.1c3.5,0.1,10.1,0,13.8-0.1c2.5-0.1,7.1-0.3,7.9-0.3c0.2,0,0.8-0.1,1.2-0.1
		c1.5-0.1,2.4-0.4,3.3-1.1c1.1-0.9,2-2.6,2.4-4.5c0.4-1.8,0.6-5.1,0.6-8.8C80.3,11,80.2,9.3,80,6.6z M44.5,5.4l-1.7,0l-0.1,17.7
		l-1.4,0c-1.1,0-1.4,0-1.5-0.1c0-0.1,0-4-0.1-8.8l0-8.8l-3.2,0V2.6l9.6,0l0,2.7L44.5,5.4L44.5,5.4z M54.7,15.5v7.6H52v-0.8
		c0-0.6,0-0.8-0.1-0.8c-0.1,0-0.3,0.2-0.5,0.4c-0.5,0.5-1.1,0.9-1.7,1.1c-1.1,0.4-2.1,0.2-2.6-0.6c-0.4-0.7-0.4-0.8-0.4-8V7.9h2.6
		l0,6.2c0,6.1,0,6.2,0.2,6.4c0.2,0.3,0.5,0.4,1,0.3c0.3-0.1,0.5-0.2,0.9-0.7l0.6-0.6V7.9h2.6L54.7,15.5L54.7,15.5z M64.9,22
		c-0.2,0.5-0.7,1-1.2,1.1c-1.1,0.3-2,0.1-3-0.9c-0.3-0.3-0.6-0.5-0.7-0.5C60,21.7,60,22,60,22.4v0.7h-2.6V2.6H60V6
		c0,1.8,0,3.3,0.1,3.3s0.3-0.2,0.6-0.5c0.7-0.7,1.3-1,2-1c1.3-0.1,2.1,0.6,2.5,2.2c0.1,0.5,0.1,1.1,0.1,5.6C65.3,21,65.3,21,64.9,22
		L64.9,22z M75.9,19c0,0.6-0.1,1.2-0.2,1.5c-0.4,1.3-1.3,2.3-2.7,2.7c-1.9,0.5-4-0.3-4.8-2c-0.5-0.9-0.5-1.1-0.5-5.7
		c0-3.7,0-4.2,0.1-4.7c0.3-1.4,1.2-2.4,2.6-2.9c0.4-0.1,0.8-0.2,1.3-0.2c1.5,0,3,0.8,3.7,2.1c0.4,0.9,0.5,1.3,0.5,3.8l0,2.3l-5.6,0
		l0,1.5c0,2.2,0.1,2.8,0.7,3.2c0.5,0.3,1.2,0.3,1.6-0.1c0.4-0.3,0.5-0.7,0.5-1.8l0-0.9H76L75.9,19L75.9,19z"/>
</g>
<g id="Layer_2">
	<polygon class="st2" points="0,0 8.7,0 8.7,5.8 11.6,5.8 11.6,2.9 14.5,2.9 14.5,0 23.2,0 23.2,8.7 20.3,8.7 20.3,11.6 17.4,11.6 
		17.4,14.5 20.3,14.5 20.3,17.4 23.2,17.4 23.2,26.1 14.5,26.1 14.5,23.2 11.6,23.2 11.6,20.3 8.7,20.3 8.7,26.1 0,26.1 	"/>
	<polygon class="st3" points="58,0 66.7,0 66.7,5.8 69.6,5.8 69.6,2.9 72.5,2.9 72.5,0 81.2,0 81.2,8.7 78.3,8.7 78.3,11.6 
		75.4,11.6 75.4,14.5 78.3,14.5 78.3,17.4 81.2,17.4 81.2,26.1 72.5,26.1 72.5,23.2 69.6,23.2 69.6,20.3 66.7,20.3 66.7,26.1 
		58,26.1 	"/>
	<rect x="26.1" class="st3" width="8.7" height="26.1"/>
	<polygon class="st3" points="46.4,0 40.6,0 40.6,2.9 37.7,2.9 37.7,23.2 40.6,23.2 40.6,26.1 46.4,26.1 55.1,26.1 55.1,17.4 
		46.4,17.4 46.4,8.7 55.1,8.7 55.1,0 	"/>
</g>
</svg>
