<?xml version="1.0" encoding="utf-8"?>
<!-- Generator: Adobe Illustrator 27.0.1, SVG Export Plug-In . SVG Version: 6.00 Build 0)  -->
<svg version="1.1" xmlns="http://www.w3.org/2000/svg" xmlns:xlink="http://www.w3.org/1999/xlink" x="0px" y="0px"
	 viewBox="0 0 29.1 32" style="enable-background:new 0 0 29.1 32;" xml:space="preserve">
<style type="text/css">
	.st0{display:none;}
	.st1{display:inline;}
	.st2{display:inline;fill-rule:evenodd;clip-rule:evenodd;}
	.st3{fill-rule:evenodd;clip-rule:evenodd;}
</style>
<g id="Layer_1" class="st0">
	<path class="st1" d="M-24.4,5.3C-24.4,5.3-24.4,5.2-24.4,5.3l0-0.3l-1.5,0c-1.3,0-1.7,0-1.8,0c0,0-0.5,1.8-1.3,4.9
		c-0.4,1.5-0.7,2.7-0.7,2.7c0,0-0.5-1.8-1-3.8c-0.6-2.1-1-3.8-1-3.8c0,0-1.8,0-3.3,0c-0.2,0-0.3-0.4,1.9,6.6c0.3,1,0.8,2.3,1,3.1
		c0.3,0.8,0.5,1.4,0.6,2c0.3,1,0.3,1.6,0.2,2.4c-0.1,0.8-0.1,6.8,0,6.9c0,0.1,2.9,0.1,3.1,0c0,0,0.1-0.1,0.1-0.3
		c0.1-0.2,0.1-1,0.1-4.2v-4.1l0.2-0.6c0.1-0.4,0.4-1.3,0.7-2.2s0.5-1.8,0.7-2.2c1.1-3.4,2.1-6.8,2.1-7L-24.4,5.3L-24.4,5.3z"/>
	<path class="st1" d="M-8.7,10.3l0,0.2h0l0,5.9l0,5.7l-0.5,0.5c-0.5,0.5-0.9,0.7-1.3,0.6c-0.4-0.1-0.4,0.1-0.4-6.7l0-6.2h-2.9v0.2h0
		v6.8c0,7.2,0,7.2,0.4,8c0.3,0.6,0.7,0.9,1.5,1l0,0c1,0.1,2-0.3,3-1.2l0.4-0.4v0.7c0,0.6,0,0.7,0.1,0.7c0.2,0,2.4,0.1,2.7,0l0.2,0
		v-0.2l0,0V10.2L-8.7,10.3L-8.7,10.3z"/>
	<path class="st1" d="M-16.2,13.3c-0.3-1.2-0.8-2-1.7-2.6c-1.4-0.9-2.9-1-4.3-0.3c-1,0.5-1.7,1.4-2.1,2.6c0,0.1-0.1,0.3-0.1,0.5
		c-0.1,0.4-0.1,1.1-0.1,4.2c0,4.7,0,5.3,0.6,6.4c0.6,1.1,1.8,1.8,3.1,2c0.4,0,1.2,0,1.7-0.2c1.1-0.3,2.1-1.1,2.5-2.1
		c0.2-0.4,0.3-0.7,0.4-1.2C-16.1,22-16,20.9-16,18C-16,14.3-16.1,13.9-16.2,13.3L-16.2,13.3z M-19.5,23c-0.2,0.2-0.7,0.3-1,0.2
		c-0.3-0.1-0.6-0.5-0.7-0.9c-0.1-0.5-0.2-7.2,0-8.5c0.2-0.7,0.8-1,1.4-0.8c0.5,0.1,0.7,0.4,0.9,1c0.1,0.5,0.1,1,0.1,4.4
		c0,2.2,0,3.3-0.1,3.9C-19.2,22.7-19.3,22.8-19.5,23L-19.5,23z"/>
	<path class="st1" d="M36.7,16.7h1.4l0-1.3c0-1.2,0-1.3-0.2-1.6c-0.2-0.5-0.6-0.7-1.2-0.7c-0.7,0-1.1,0.3-1.4,1
		c-0.1,0.3-0.2,2.3-0.1,2.5C35.3,16.7,35.5,16.7,36.7,16.7L36.7,16.7z"/>
	<path class="st1" d="M27.2,13.8c-0.2-0.4-0.5-0.6-1-0.6c-0.3,0-0.7,0.1-1,0.4L25,13.8v9.3l0.3,0.2c0.6,0.4,1.2,0.5,1.6,0.2
		c0.2-0.1,0.3-0.3,0.4-0.5c0.1-0.3,0.1-0.8,0.1-4.6C27.4,14.3,27.4,14,27.2,13.8L27.2,13.8z"/>
	<path class="st1" d="M44.9,9.6c-0.3-3.4-0.5-4.5-1.2-5.9c-0.9-1.9-2.3-2.9-4.2-3.1c-1.5-0.2-7-0.4-12.2-0.5
		C18.4-0.1,3.7,0.2,1.9,0.7C1,0.9,0.3,1.3-0.3,2c-1.2,1.2-1.9,2.9-2.2,5.2c-0.6,5.3-0.7,11.8,0,17.3c0.3,2.4,0.8,3.9,1.9,5.2
		c0.6,0.8,1.8,1.5,2.8,1.7c0.7,0.1,4.2,0.3,9.3,0.5c0.8,0,2.8,0.1,4.5,0.1c3.5,0.1,10.1,0,13.8-0.1c2.5-0.1,7.1-0.3,7.9-0.3
		c0.2,0,0.8-0.1,1.2-0.1c1.5-0.1,2.4-0.4,3.3-1.1c1.1-0.9,2-2.6,2.4-4.5c0.4-1.8,0.6-5.1,0.6-8.8C45.2,14,45.1,12.3,44.9,9.6z
		 M9.4,8.4l-1.7,0L7.7,26l-1.4,0c-1.1,0-1.4,0-1.5-0.1c0-0.1,0-4-0.1-8.8l0-8.8l-3.2,0V5.6l9.6,0l0,2.7L9.4,8.4L9.4,8.4z M19.5,18.5
		v7.6h-2.6v-0.8c0-0.6,0-0.8-0.1-0.8c-0.1,0-0.3,0.2-0.5,0.4c-0.5,0.5-1.1,0.9-1.7,1.1c-1.1,0.4-2.1,0.2-2.6-0.6
		c-0.4-0.7-0.4-0.8-0.4-8v-6.6h2.6l0,6.2c0,6.1,0,6.2,0.2,6.4c0.2,0.3,0.5,0.4,1,0.3c0.3-0.1,0.5-0.2,0.9-0.7l0.6-0.6V10.9h2.6
		L19.5,18.5L19.5,18.5z M29.8,25c-0.2,0.5-0.7,1-1.2,1.1c-1.1,0.3-2,0.1-3-0.9c-0.3-0.3-0.6-0.5-0.7-0.5c-0.1,0-0.1,0.2-0.1,0.7v0.7
		h-2.6V5.6h2.6v3.3c0,1.8,0,3.3,0.1,3.3s0.3-0.2,0.6-0.5c0.7-0.7,1.3-1,2-1c1.3-0.1,2.1,0.6,2.5,2.2c0.1,0.5,0.1,1.1,0.1,5.6
		C30.2,24,30.2,24,29.8,25L29.8,25z M40.8,21.9c0,0.6-0.1,1.2-0.2,1.5c-0.4,1.3-1.3,2.3-2.7,2.7c-1.9,0.5-4-0.3-4.8-2
		c-0.5-0.9-0.5-1.1-0.5-5.7c0-3.7,0-4.2,0.1-4.7c0.3-1.4,1.2-2.4,2.6-2.9c0.4-0.1,0.8-0.2,1.3-0.2c1.5,0,3,0.8,3.7,2.1
		c0.4,0.9,0.5,1.3,0.5,3.8l0,2.3l-5.6,0l0,1.5c0,2.2,0.1,2.8,0.7,3.2c0.5,0.3,1.2,0.3,1.6-0.1c0.4-0.3,0.5-0.7,0.5-1.8l0-0.9h2.7
		L40.8,21.9L40.8,21.9z"/>
</g>
<g id="Layer_2" class="st0">
	<polygon class="st2" points="-35.1,3 -26.4,3 -26.4,8.8 -23.5,8.8 -23.5,5.9 -20.6,5.9 -20.6,3 -11.9,3 -11.9,11.7 -14.8,11.7 
		-14.8,14.6 -17.7,14.6 -17.7,17.5 -14.8,17.5 -14.8,20.3 -11.9,20.3 -11.9,29 -20.6,29 -20.6,26.1 -23.5,26.1 -23.5,23.2 
		-26.4,23.2 -26.4,29 -35.1,29 	"/>
	<polygon class="st3" points="22.9,3 31.6,3 31.6,8.8 34.5,8.8 34.5,5.9 37.4,5.9 37.4,3 46.1,3 46.1,11.7 43.2,11.7 43.2,14.6 
		40.3,14.6 40.3,17.5 43.2,17.5 43.2,20.3 46.1,20.3 46.1,29 37.4,29 37.4,26.1 34.5,26.1 34.5,23.2 31.6,23.2 31.6,29 22.9,29 	"/>
	<rect x="-9" y="3" class="st3" width="8.7" height="26.1"/>
	<polygon class="st3" points="11.3,3 5.5,3 5.5,5.9 2.6,5.9 2.6,26.1 5.5,26.1 5.5,29 11.3,29 20,29 20,20.3 11.3,20.3 11.3,11.7 
		20,11.7 20,3 	"/>
</g>
<g id="Layer_3">
	<path id="Layer" class="st3" d="M27.1,10.9c0.6,0.7,1.2,1.5,1.5,2.4c0.3,0.9,0.5,1.9,0.5,2.8c0,1-0.2,1.9-0.5,2.8
		c-0.3,0.9-0.9,1.7-1.5,2.4c-1.2,1.3-2.4,2.5-3.7,3.6s-2.7,2.1-4.2,3c-1.5,0.9-3,1.7-4.6,2.3s-3.2,1.2-4.9,1.6
		C8.8,32,7.9,32.1,7,31.9c-0.9-0.1-1.7-0.4-2.5-0.9c-0.8-0.4-1.4-1-2-1.7C2,28.7,1.6,27.9,1.4,27c-2-6.9-1.7-14.8,0.2-21.7
		c1-3.7,4.5-6,8-5.1C16.2,1.7,22.4,5.8,27.1,10.9L27.1,10.9z M17.8,18.1c1.2-1,1.2-2.9,0-3.9c-0.4-0.4-0.9-0.7-1.4-1.1
		c-0.5-0.3-0.9-0.7-1.4-1c-0.5-0.3-1-0.6-1.5-0.9c-0.5-0.3-1-0.5-1.5-0.8c-1.4-0.7-3,0.3-3.2,1.9c-0.3,2.5-0.4,5-0.2,7.3
		c0.2,1.6,1.7,2.6,3.2,2c0.5-0.2,1.1-0.5,1.6-0.7c0.5-0.3,1-0.6,1.5-0.9c0.5-0.3,1-0.6,1.5-1C16.9,18.8,17.4,18.4,17.8,18.1
		L17.8,18.1z"/>
</g>
</svg>
