<?xml version="1.0" encoding="utf-8"?>
<!-- Generator: Adobe Illustrator 27.0.1, SVG Export Plug-In . SVG Version: 6.00 Build 0)  -->
<svg version="1.1" id="Layer_1" xmlns="http://www.w3.org/2000/svg" xmlns:xlink="http://www.w3.org/1999/xlink" x="0px" y="0px"
	 viewBox="0 0 80.2 32" style="enable-background:new 0 0 80.2 32;" xml:space="preserve">
<path d="M10.7,5.3C10.7,5.3,10.7,5.2,10.7,5.3l0-0.3L9.3,5C7.9,5,7.5,5,7.5,5C7.5,5,7,6.8,6.2,10c-0.4,1.5-0.7,2.7-0.7,2.7
	s-0.5-1.8-1-3.8C3.9,6.7,3.4,5,3.4,5c0,0-1.8,0-3.3,0C-0.1,5-0.2,4.6,2,11.6c0.3,1,0.8,2.3,1,3.1c0.3,0.8,0.5,1.4,0.6,2
	c0.3,1,0.3,1.6,0.2,2.4c-0.1,0.8-0.1,6.8,0,6.9c0,0.1,2.9,0.1,3.1,0c0,0,0.1-0.1,0.1-0.3c0.1-0.2,0.1-1,0.1-4.2v-4.1l0.2-0.6
	c0.1-0.4,0.4-1.3,0.7-2.2c0.2-0.8,0.5-1.8,0.7-2.2c1.1-3.4,2.1-6.8,2.1-7L10.7,5.3L10.7,5.3z"/>
<path d="M26.4,10.3l0,0.2h0l0,5.9l0,5.7l-0.5,0.5c-0.5,0.5-0.9,0.7-1.3,0.6c-0.4-0.1-0.4,0.1-0.4-6.7l0-6.2h-2.9v0.2h0v6.8
	c0,7.2,0,7.2,0.4,8c0.3,0.6,0.7,0.9,1.5,1l0,0c1,0.1,2-0.3,3-1.2l0.4-0.4v0.7c0,0.6,0,0.7,0.1,0.7c0.2,0,2.4,0.1,2.7,0l0.2,0v-0.2
	l0,0V10.2L26.4,10.3L26.4,10.3z"/>
<path d="M18.9,13.3c-0.3-1.2-0.8-2-1.7-2.6c-1.4-0.9-2.9-1-4.3-0.3c-1,0.5-1.7,1.4-2.1,2.6c0,0.1-0.1,0.3-0.1,0.5
	c-0.1,0.4-0.1,1.1-0.1,4.2c0,4.7,0,5.3,0.6,6.4c0.6,1.1,1.8,1.8,3.1,2c0.4,0,1.2,0,1.7-0.2c1.1-0.3,2.1-1.1,2.5-2.1
	c0.2-0.4,0.3-0.7,0.4-1.2c0.1-0.7,0.1-1.8,0.1-4.8C19.1,14.3,19.1,13.9,18.9,13.3L18.9,13.3z M15.6,23c-0.2,0.2-0.7,0.3-1,0.2
	c-0.3-0.1-0.6-0.5-0.7-0.9c-0.1-0.5-0.2-7.2,0-8.5c0.2-0.7,0.8-1,1.4-0.8c0.5,0.1,0.7,0.4,0.9,1c0.1,0.5,0.1,1,0.1,4.4
	c0,2.2,0,3.3-0.1,3.9C15.9,22.7,15.8,22.8,15.6,23L15.6,23z"/>
<path d="M71.9,16.7h1.4l0-1.3c0-1.2,0-1.3-0.2-1.6c-0.2-0.5-0.6-0.7-1.2-0.7c-0.7,0-1.1,0.3-1.4,1c-0.1,0.3-0.2,2.3-0.1,2.5
	C70.4,16.7,70.6,16.7,71.9,16.7L71.9,16.7z"/>
<path d="M62.3,13.8c-0.2-0.4-0.5-0.6-1-0.6c-0.3,0-0.7,0.1-1,0.4l-0.3,0.2v9.3l0.3,0.2c0.6,0.4,1.2,0.5,1.6,0.2
	c0.2-0.1,0.3-0.3,0.4-0.5c0.1-0.3,0.1-0.8,0.1-4.6C62.5,14.3,62.5,14,62.3,13.8L62.3,13.8z"/>
<path d="M80,9.6c-0.3-3.4-0.5-4.5-1.2-5.9c-0.9-1.9-2.3-2.9-4.2-3.1c-1.5-0.2-7-0.4-12.2-0.5C53.5-0.1,38.8,0.2,37,0.7
	c-0.9,0.2-1.5,0.6-2.2,1.3c-1.2,1.2-1.9,2.9-2.2,5.2C32,12.5,32,19,32.6,24.5c0.3,2.4,0.8,3.9,1.9,5.2c0.6,0.8,1.8,1.5,2.8,1.7
	c0.7,0.1,4.2,0.3,9.3,0.5c0.8,0,2.8,0.1,4.5,0.1c3.5,0.1,10.1,0,13.8-0.1c2.5-0.1,7.1-0.3,7.9-0.3c0.2,0,0.8-0.1,1.2-0.1
	c1.5-0.1,2.4-0.4,3.3-1.1c1.1-0.9,2-2.6,2.4-4.5c0.4-1.8,0.6-5.1,0.6-8.8C80.3,14,80.2,12.3,80,9.6z M44.5,8.4l-1.7,0L42.8,26
	l-1.4,0c-1.1,0-1.4,0-1.5-0.1c0-0.1,0-4-0.1-8.8l0-8.8l-3.2,0V5.6l9.6,0l0,2.7L44.5,8.4L44.5,8.4z M54.7,18.5v7.6H52v-0.8
	c0-0.6,0-0.8-0.1-0.8c-0.1,0-0.3,0.2-0.5,0.4c-0.5,0.5-1.1,0.9-1.7,1.1c-1.1,0.4-2.1,0.2-2.6-0.6c-0.4-0.7-0.4-0.8-0.4-8v-6.6h2.6
	l0,6.2c0,6.1,0,6.2,0.2,6.4c0.2,0.3,0.5,0.4,1,0.3c0.3-0.1,0.5-0.2,0.9-0.7l0.6-0.6V10.9h2.6L54.7,18.5L54.7,18.5z M64.9,25
	c-0.2,0.5-0.7,1-1.2,1.1c-1.1,0.3-2,0.1-3-0.9c-0.3-0.3-0.6-0.5-0.7-0.5c-0.1,0-0.1,0.2-0.1,0.7v0.7h-2.6V5.6H60v3.3
	c0,1.8,0,3.3,0.1,3.3s0.3-0.2,0.6-0.5c0.7-0.7,1.3-1,2-1c1.3-0.1,2.1,0.6,2.5,2.2c0.1,0.5,0.1,1.1,0.1,5.6C65.3,24,65.3,24,64.9,25
	L64.9,25z M75.9,21.9c0,0.6-0.1,1.2-0.2,1.5c-0.4,1.3-1.3,2.3-2.7,2.7c-1.9,0.5-4-0.3-4.8-2c-0.5-0.9-0.5-1.1-0.5-5.7
	c0-3.7,0-4.2,0.1-4.7c0.3-1.4,1.2-2.4,2.6-2.9c0.4-0.1,0.8-0.2,1.3-0.2c1.5,0,3,0.8,3.7,2.1c0.4,0.9,0.5,1.3,0.5,3.8l0,2.3l-5.6,0
	l0,1.5c0,2.2,0.1,2.8,0.7,3.2c0.5,0.3,1.2,0.3,1.6-0.1c0.4-0.3,0.5-0.7,0.5-1.8l0-0.9H76L75.9,21.9L75.9,21.9z"/>
</svg>
